<svg xmlns="http://www.w3.org/2000/svg" viewBox="0 0 1840.78 281.97"><defs><style>.cls-1{fill:#f9ed32;}.cls-2{fill:#fff;}</style></defs><g id="Layer_2" data-name="Layer 2"><g id="Layer_1-2" data-name="Layer 1"><path class="cls-1" d="M287.19,55.72a4,4,0,0,1-2.46-4.22l3.65-34.72h-1.76a3.93,3.93,0,0,1-4.11-2.9,3.56,3.56,0,0,1-2.34-3.94l.46-4.56A5.07,5.07,0,0,1,285.7.93h22.41a4,4,0,0,1,4.16,2.85A3.74,3.74,0,0,1,314.61,8l-.46,4.56A5,5,0,0,1,309,16.78h-4l-3.94,37.28a5,5,0,0,1-4.84,4.51H291A3.86,3.86,0,0,1,287.19,55.72Zm9.06-4.22,4.16-39.85H307a2.14,2.14,0,0,0,2.33-1.71l.46-4.56c.11-1.37-.8-1.88-1.94-1.88h-22.4a2.15,2.15,0,0,0-2.23,1.88l-.45,4.56c-.12,1.08.63,1.71,1.82,1.71h6.9L287.3,51.5a1.7,1.7,0,0,0,1.6,1.94h5.3A2.15,2.15,0,0,0,296.25,51.5Z" transform="translate(0 -0.93)"/><path class="cls-1" d="M315.11,55.72a4.09,4.09,0,0,1-2.45-4.22l4.85-46a5.17,5.17,0,0,1,4.84-4.44h5.31a3.94,3.94,0,0,1,3.87,2.85,3.86,3.86,0,0,1,2.4,4.16l-1.6,15.22,5.81-.06L340,5.49a5.13,5.13,0,0,1,5-4.44h5.13a4.19,4.19,0,0,1,4,2.91,4.12,4.12,0,0,1,2.4,4.1l-4.85,46a5.19,5.19,0,0,1-5,4.51h-5.13a4.09,4.09,0,0,1-4-2.91,4,4,0,0,1-2.39-4.16l1.25-11.86-5.81.06-1.54,14.36a5,5,0,0,1-4.9,4.51h-5.3A3.88,3.88,0,0,1,315.11,55.72Zm9.13-4.22L326,34.57l13.51-.06-1.76,17a1.72,1.72,0,0,0,1.76,1.94h5.13a2.33,2.33,0,0,0,2.23-1.94l4.84-46a1.81,1.81,0,0,0-1.82-1.88h-5.13a2.27,2.27,0,0,0-2.17,1.88l-2.16,20.3-13.52.06,2.17-20.36a1.67,1.67,0,0,0-1.71-1.88h-5.3a2.26,2.26,0,0,0-2,1.88l-4.84,46a1.69,1.69,0,0,0,1.59,1.94h5.31A2.21,2.21,0,0,0,324.24,51.5Z" transform="translate(0 -0.93)"/><path class="cls-1" d="M357.41,51.38l4.84-46.06a5,5,0,0,1,5-4.39h21c2.51,0,6.73,3.31,6.33,7l-.51,4.9a5.1,5.1,0,0,1-5,4.5h-11.8l-.63,6.1h5.76a6.28,6.28,0,0,1,6.15,7l-.51,5a4.78,4.78,0,0,1-4.79,4.33h-8.32l-.29,2.4h9.24c2.51,0,6.9,1.82,6.33,7l-.52,5a5.05,5.05,0,0,1-5,4.45h-21C360,58.4,357.12,54,357.41,51.38Zm27.42,0,.51-5a1.66,1.66,0,0,0-1.77-1.83H369.21l1.08-10.09h10.89a1.86,1.86,0,0,0,1.94-1.77l.51-5A1.48,1.48,0,0,0,382.09,26H371.2l1.43-13.8H387a2.2,2.2,0,0,0,2.17-1.93l.51-4.91a1.63,1.63,0,0,0-1.76-1.82h-21a2,2,0,0,0-2.11,1.82L360,51.38a1.64,1.64,0,0,0,1.71,1.89h21A2.23,2.23,0,0,0,384.83,51.38Z" transform="translate(0 -0.93)"/><path class="cls-2" d="M132.81,255.4c-5.61-2.28-8.77-7.9-6.66-14.21L170,99.07c2.1-7,9.3-12.1,16.84-12.1h27.72c6.67,0,12.11,3.86,13.86,9.47A13.14,13.14,0,0,1,236.15,107L250,249.26c.7,8.07-6.14,14.91-14.91,14.91H216.5c-6.14,0-10.7-3.34-11.93-8.6a10.9,10.9,0,0,1-7-8.24l-1.58-13H183.69l-5.44,18.78c-2.45,7.19-7.36,11.05-14.56,11.05h-18.6C138.6,264.17,133.87,260.48,132.81,255.4Zm30.71-11.76,7.37-25.09h31.22l3,25.09c0,3.16,1.75,4.74,5.09,4.74h18.59c3.86,0,6.49-2.46,6.32-5.62L221.24,100.65c-.35-3.33-3.69-5.79-7.55-5.79H186c-3.68,0-7.37,2.46-8.42,5.79L133.69,242.76c-1.05,3.16,1.23,5.62,5.09,5.62h18.6C161.06,248.38,162.46,246.8,163.52,243.64Zm33.33-121.23,4.91,72.28L177,194.52Z" transform="translate(0 -0.93)"/><path class="cls-2" d="M268.08,254.87a12.76,12.76,0,0,1-7.55-12.63l14.92-141.76c.7-7.55,7.89-13.51,15.79-13.51h27.37c3.51,0,14.73-.35,18.07,9.82,3.86,1.76,7.19,4.92,7.89,11.41l1.93,24.56,9.65-32.63C361.59,85.21,375.1,87,377.73,87H405.8c6.32,0,11.06,3.51,12.28,8.77,5.09,1.93,8.08,6.67,7.37,12.63L410.54,250.13A15.31,15.31,0,0,1,395.1,264H379.66c-6.31,0-11.05-3.51-12.45-9a12.18,12.18,0,0,1-4.92-3.33v.18c-2.45,7.37-8.59,11.58-16.84,12.1H329.66c-6.84-.52-11.75-4-13.51-9.47a13.78,13.78,0,0,1-4.91-3.86c-.7,7.19-7.55,13.33-14.74,13.33h-16A13.07,13.07,0,0,1,268.08,254.87Zm28.25-12.28,9.12-109.48,10.88,108.25c.17,4.39,3.51,6.49,7.37,6.84h15.08c4.39-.35,7.37-1.75,9-6l34.21-109.13L367.56,241.54c-.35,3.5,1.22,6.66,5.79,6.66h15.44a6.58,6.58,0,0,0,6.84-6l14.91-141.76c.35-3.34-1.93-5.62-5.61-5.62H376.86c-3.16,0-10.18-.87-13.16,7l-27.2,91.58-6.84-91.58c-1.05-7.19-7.9-7-11.93-7H290.36c-3.33,0-6.67,2.28-7,5.62L268.43,242.24c-.35,2.8,2.46,6,5.79,6h16A6.72,6.72,0,0,0,296.33,242.59Z" transform="translate(0 -0.93)"/><path class="cls-2" d="M433.52,255c-4.91-1.92-7.89-6.66-7.19-12.63l14.91-141.76a15.49,15.49,0,0,1,15.61-14h42.81c16.14,0,27.2,5.09,33,14.91,9.65,7.19,13.51,19.83,11.4,37.9l-4.39,41.4a46.91,46.91,0,0,1-46.49,42.11l-11.4-.18-3,27.55c-.88,7.72-7.9,13.51-15.79,13.51H446.15C439.66,263.82,434.92,260.31,433.52,255Zm30.35-12.63L467.56,207l19.47.18c19.13,0,35.44-14,37.55-34.21l4.56-41.41c2.63-23.51-5.09-37-30.35-37H456a6.51,6.51,0,0,0-6.85,6.14L434.22,242.41c-.35,3.34,1.58,5.62,5.62,5.62h16.84C460.19,248,463.52,245.75,463.87,242.41Zm28.25-124.74c7,0,11.75,5.09,11.05,12.11l-4,38.42a14,14,0,0,1-13.51,12.46H469.14l6.66-63.16Zm-.88,50.53,3.69-34.74-5.09-.17-4.21,39.47h.7A5,5,0,0,0,491.24,168.2Z" transform="translate(0 -0.93)"/><path class="cls-2" d="M553.87,254.69c-5.08-1.93-8.07-6.84-7.36-12.8l14.91-141.76a15.23,15.23,0,0,1,15.26-13.51h64.57c6,0,10.7,3.51,12.1,8.77A11.56,11.56,0,0,1,660.72,108l-1.58,15.09A15.67,15.67,0,0,1,643.88,137H607.56l-1.93,18.77h17.72c6,0,10.18,3.51,11.4,8.6,5.09,1.93,8.07,6.67,7.55,12.81l-1.58,15.26A14.7,14.7,0,0,1,626,205.74H600.37l-.88,7.37h28.42A12.24,12.24,0,0,1,640,221.89a11.88,11.88,0,0,1,7.37,12.63l-1.58,15.26a15.53,15.53,0,0,1-15.27,13.69H566A12.24,12.24,0,0,1,553.87,254.69Zm77-12.8,1.58-15.27c.35-3.16-2.1-5.61-5.44-5.61H582.82l3.34-31h33.51a5.7,5.7,0,0,0,6-5.44l1.58-15.27c.35-3.33-1.4-5.61-4.74-5.61H589l4.39-42.46h44.21a6.8,6.8,0,0,0,6.67-6l1.58-15.08c.35-3.34-2.11-5.62-5.44-5.62H575.8a6.22,6.22,0,0,0-6.49,5.62L554.4,241.89a5,5,0,0,0,5.26,5.79h64.57A6.8,6.8,0,0,0,630.89,241.89Z" transform="translate(0 -0.93)"/><path class="cls-2" d="M663.88,255.22a12.67,12.67,0,0,1-7.55-13l14.74-140.18c.88-8.07,8.07-14.92,16-14.92h44c15.27,0,28.6,6.85,36.67,18.6a42.19,42.19,0,0,1,10.18,13.16c4,9.3,4.56,21.75,1.57,50.35-1.22,11.76-3.15,25.62-4.91,42.81-2.1,19.83-13.51,38.42-28.42,45.62a57.1,57.1,0,0,1-24.56,6.14l-46,.17A12.1,12.1,0,0,1,663.88,255.22Zm72.28-12.46c13.51-6.49,21.93-23.68,23.51-38.59,1.75-17.2,3.68-31.23,4.91-42.81,2.46-23.86,3-37.55-1.05-46.32-6-12.28-18.42-20-33.34-20h-44c-3.51,0-6.85,3.33-7.2,7L664.23,242.24a5.31,5.31,0,0,0,5.08,6l46.15-.17A47.62,47.62,0,0,0,736.16,242.76Zm-43.34-22.1L703,123.81a3.75,3.75,0,0,1,3.51-3.16h18.42c9.12,0,15.62,7.55,14.74,16.5l-7,66.84c-1,10-10.53,18.42-20.35,18.42H694.4C693.18,222.41,692.65,221.89,692.82,220.66ZM724.76,204l7-66.84v-.71H717.39l-8.07,78.08h3.86A12.2,12.2,0,0,0,724.76,204Z" transform="translate(0 -0.93)"/><path class="cls-1" d="M790.19,255.75a12.22,12.22,0,0,1-7.37-13l14.92-141.93A15.49,15.49,0,0,1,812.83,87H829a12.26,12.26,0,0,1,11.75,8.77,12.09,12.09,0,0,1,7.37,13L833.18,250.66c-.7,7.37-7.55,13.86-14.92,13.86H802.12A12.33,12.33,0,0,1,790.19,255.75Zm28.07-13,14.92-141.93a5.24,5.24,0,0,0-5.09-6H812a6.46,6.46,0,0,0-6.32,6L790.72,242.76a5.13,5.13,0,0,0,5.09,6H812C814.93,248.73,817.91,245.92,818.26,242.76Z" transform="translate(0 -0.93)"/><path class="cls-1" d="M921.78,253.82a14.53,14.53,0,0,1-7.2-8.6l-9.3-35.44-3.5,40V250a15.4,15.4,0,0,1-15.27,13.86H870.37a12.54,12.54,0,0,1-12.28-8.95,12,12,0,0,1-7.37-12.81l14.91-141.93a15.85,15.85,0,0,1,15.44-13.86h20.71c9.47,0,14.21,2.45,17.19,9.65,3.68,1.57,6,4.56,7.72,9.29l6.14,26.15,2.63-31.06v-.17a15.5,15.5,0,0,1,15.09-13.86h16.67a12.68,12.68,0,0,1,12.1,8.94c4.56,1.93,7.72,6.5,7.2,11.23L971.6,248.38c-.87,8.77-7.19,15.44-15.09,15.44l-18.07.17C930.9,264,923.88,259.78,921.78,253.82Zm34.91-13.34L971.6,98.55c.18-1.76-2.28-4.39-5.09-4.39H949.85a6.62,6.62,0,0,0-6.49,6L935.11,198,912,100.3c-2.28-5.61-4.91-6.14-10.88-6.14h-20.7a7,7,0,0,0-6.84,6L858.61,242.06a5.31,5.31,0,0,0,5.44,6H880.2a6.67,6.67,0,0,0,6.66-6l8.77-101.41L922.3,242.41c1.05,4,6.49,5.79,9.83,5.79L950.2,248C953.53,248,956.16,245,956.69,240.48Z" transform="translate(0 -0.93)"/><path class="cls-1" d="M1018.44,254.52c-4.21-2.11-7.36-6-7.72-10.53L997,101.88c-.88-8.07,6-15.09,14.74-15.09h18.6c5.43,0,9.29,3.16,11,8.6,3.86,1.23,6.66,4.91,7.54,10l4,46.49,15.61-54c2.46-7.2,7.37-11.06,14.56-11.06H1102c6.31,0,11,3.69,12.1,8.77,5.79,2.11,8.77,7.9,6.67,14.22l-43.86,142.11c-2.11,7-9.3,12.1-16.85,12.1h-27.54C1025.81,264,1020.2,260.13,1018.44,254.52Zm43.87-12.11,43.86-142.11c1-3.16-1.41-5.61-5.09-5.61h-18.77c-3.69,0-5.09,1.58-6,4.74l-32.28,111.75-9.83-109.12c0-4.92-1.93-7.37-4.73-7.37h-18.6c-3.68,0-6.32,2.45-6,5.61l13.69,142.11c.35,3.34,3.68,5.79,7.54,5.79h27.55C1057.39,248.2,1061.25,245.75,1062.31,242.41Z" transform="translate(0 -0.93)"/><path class="cls-1" d="M1124.23,254.69c-5.08-1.93-8.07-6.84-7.36-12.8l14.91-141.76A15.23,15.23,0,0,1,1147,86.62h64.57c6,0,10.7,3.51,12.1,8.77a11.56,11.56,0,0,1,7.37,12.63l-1.58,15.09A15.67,15.67,0,0,1,1214.24,137h-36.32L1176,155.74h17.72c6,0,10.18,3.51,11.4,8.6,5.09,1.93,8.07,6.67,7.55,12.81l-1.58,15.26a14.7,14.7,0,0,1-14.74,13.33h-25.61l-.88,7.37h28.42a12.24,12.24,0,0,1,12.11,8.78,11.88,11.88,0,0,1,7.37,12.63l-1.58,15.26a15.53,15.53,0,0,1-15.27,13.69h-64.56A12.24,12.24,0,0,1,1124.23,254.69Zm77-12.8,1.58-15.27c.35-3.16-2.1-5.61-5.44-5.61h-44.21l3.34-31H1190a5.7,5.7,0,0,0,6-5.44l1.58-15.27c.35-3.33-1.4-5.61-4.74-5.61h-33.51l4.39-42.46h44.21a6.8,6.8,0,0,0,6.67-6l1.58-15.08c.35-3.34-2.11-5.62-5.44-5.62h-64.57a6.22,6.22,0,0,0-6.49,5.62l-14.91,141.76a5,5,0,0,0,5.26,5.79h64.57A6.8,6.8,0,0,0,1201.25,241.89Z" transform="translate(0 -0.93)"/><path class="cls-1" d="M1297.75,253.82a14.53,14.53,0,0,1-7.2-8.6l-9.29-35.44-3.51,40V250a15.4,15.4,0,0,1-15.27,13.86h-16.14a12.54,12.54,0,0,1-12.28-8.95,12,12,0,0,1-7.37-12.81l14.91-141.93A15.85,15.85,0,0,1,1257,86.27h20.71c9.47,0,14.21,2.45,17.19,9.65,3.68,1.57,6,4.56,7.72,9.29l6.14,26.15,2.63-31.06v-.17a15.5,15.5,0,0,1,15.09-13.86h16.67a12.68,12.68,0,0,1,12.1,8.94c4.56,1.93,7.72,6.5,7.2,11.23l-14.92,141.94c-.87,8.77-7.19,15.44-15.09,15.44l-18.07.17C1306.87,264,1299.85,259.78,1297.75,253.82Zm34.91-13.34,14.91-141.93c.18-1.76-2.28-4.39-5.08-4.39h-16.67a6.62,6.62,0,0,0-6.49,6l-8.25,97.9-23.16-97.73c-2.28-5.61-4.91-6.14-10.88-6.14h-20.7a7,7,0,0,0-6.84,6l-14.91,141.93a5.3,5.3,0,0,0,5.44,6h16.14a6.66,6.66,0,0,0,6.66-6l8.78-101.41,26.66,101.76c1.06,4,6.49,5.79,9.83,5.79l18.07-.17C1329.5,248,1332.13,245,1332.66,240.48Z" transform="translate(0 -0.93)"/><path class="cls-1" d="M1391.26,255.22a12.32,12.32,0,0,1-7.55-13l11.23-106.85h-5.44c-6.49,0-11.4-3.51-12.63-8.95-4.91-1.75-7.89-6.31-7.19-12.1l1.4-14a15.6,15.6,0,0,1,15.62-13.68h69c6.66,0,11.4,3.51,12.8,8.77,5.09,1.93,7.9,6.67,7.2,12.81l-1.41,14c-.87,7.72-7.54,13.16-15.79,13.16h-12.28l-12.1,114.74c-.71,7.55-7.37,13.86-14.92,13.86h-16.31A11.88,11.88,0,0,1,1391.26,255.22Zm27.89-13L1432,119.6h20.18c3.51,0,6.66-1.75,7.19-5.26l1.4-14c.35-4.21-2.45-5.79-6-5.79h-69a6.57,6.57,0,0,0-6.84,5.79l-1.41,14c-.35,3.33,1.93,5.26,5.62,5.26h21.23l-12.81,122.64a5.21,5.21,0,0,0,4.91,6h16.32A6.59,6.59,0,0,0,1419.15,242.24Z" transform="translate(0 -0.93)"/><path class="cls-1" d="M1482.84,247c-10.88-9.12-16.5-23.51-14.74-40.17l7.54-72.29c3-28.07,27.2-50,55.27-50h7.19c16.14,0,29.48,7.2,37.2,18.6,10.52,9,16.14,23,14.56,39.12l-7.55,72.46c-2.8,27.55-28.07,50.88-54.91,50.88H1520C1503.89,265.57,1490.56,258.38,1482.84,247Zm84.56-40.17,7.37-72.46c2.63-24-14-41.93-37.37-41.93h-7.19c-23.69,0-44,18.24-46.67,42.1L1476,206.8c-2.63,25.26,14.57,43,37.73,43h7.36C1543.19,249.78,1565,230.31,1567.4,206.8Zm-63.86-.88,7.37-71.76c1-9.65,9.82-16.84,19.47-16.84h.71c9.64,0,16.49,7.19,15.43,16.84l-7.36,71.76c-1.06,9.65-9.65,17.9-19.13,17.9h-.88C1509.51,223.82,1502.49,215.57,1503.54,205.92Zm27.72,0,7.37-71.76a1.94,1.94,0,0,0,.17-.87,4.72,4.72,0,0,0-1.58-.18h-.7c-5.43,0-10,3.86-10.52,8.95l-7.55,71.75a3.74,3.74,0,0,0,0,1.94,5,5,0,0,0,1.58.17h.88C1525.82,215.92,1530.56,211.36,1531.26,205.92Z" transform="translate(0 -0.93)"/><path class="cls-1" d="M1599.86,255.22c-4.92-1.93-7.9-6.67-7.2-12.63l14.92-141.76a15.49,15.49,0,0,1,15.61-14H1666c16.14,0,27.19,5.09,33,14.92,9.65,7.19,13.51,19.82,11.41,37.89L1706,181a46.1,46.1,0,0,1-14.56,29.3l9,37.19a10.52,10.52,0,0,1,.17,4A14,14,0,0,1,1687.05,264h-18.42a14.39,14.39,0,0,1-13.86-9.3,14.92,14.92,0,0,1-7.37-9.65l-1.05-5.78-1.23,11.22c-.87,7.72-7.89,13.51-15.79,13.51h-16.84C1606,264,1601.26,260.48,1599.86,255.22Zm30.35-12.63,3.68-35.44,14.74.17,6.32,34.39a7.25,7.25,0,0,0,7.37,6.49h18.42a5.1,5.1,0,0,0,4.91-4.56,4.78,4.78,0,0,0-.18-1.58l-10-41.93a37.34,37.34,0,0,0,15.44-27l4.56-41.4c2.64-23.51-5.08-37-30.35-37h-42.81a6.5,6.5,0,0,0-6.84,6.14l-14.91,141.76c-.35,3.33,1.58,5.61,5.61,5.61H1623C1626.52,248.2,1629.86,245.92,1630.21,242.59Zm28.25-124.74c7,0,11.75,5.08,11,12.1l-4,38.43A14,14,0,0,1,1652,180.83h-16.49l6.67-63.16Zm-.88,50.53,3.68-34.74-5.08-.18L1652,172.94h.71A5,5,0,0,0,1657.58,168.38Z" transform="translate(0 -0.93)"/><polyline class="cls-1" points="117.42 113.89 71.16 76.66 57.34 110.5 19.11 76.66"/><polyline class="cls-1" points="102.46 233.8 43.08 233.24 53.2 268.36 2.22 265.49"/><polyline class="cls-1" points="104.68 170.57 50.17 147.02 45.87 183.31 0 160.88"/><polyline class="cls-1" points="1734.77 104.48 1781.03 67.25 1794.85 101.08 1833.08 67.25"/><polyline class="cls-1" points="1736.76 245.58 1796.12 247.26 1784.68 281.97 1835.73 281.03"/><polyline class="cls-1" points="1740.71 181.21 1796.41 183.55 1793.41 152.23 1840.78 156.34"/></g></g></svg>